<svg xmlns="http://www.w3.org/2000/svg" width="640" height="520" viewBox="0 0 640 520"><circle cx="104.27" cy="98.53" r="102.14" fill="#BBC8C5" fill-opacity="0.053" /><circle cx="178.47" cy="169.00" r="156.37" fill="#BBC8C5" fill-opacity="0.054" /><circle cx="130.32" cy="79.56" r="61.25" fill="#CFC1BA" fill-opacity="0.092" /><circle cx="409.98" cy="316.24" r="108.95" fill="#C1D0CC" fill-opacity="0.086" /><line x1="394.82" y1="384.62" x2="417.07" y2="359.74" stroke="#7FA39A" stroke-width="1.38" stroke-opacity="0.197" stroke-linecap="round" /><line x1="492.38" y1="358.83" x2="496.13" y2="391.50" stroke="#8D6B5A" stroke-width="1.38" stroke-opacity="0.197" stroke-linecap="round" /><line x1="531.76" y1="375.86" x2="496.13" y2="391.50" stroke="#7FA39A" stroke-width="1.38" stroke-opacity="0.197" stroke-linecap="round" /><line x1="464.56" y1="336.16" x2="478.43" y2="347.47" stroke="#7FA39A" stroke-width="1.08" stroke-opacity="0.070" stroke-linecap="round" /><line x1="464.56" y1="336.16" x2="417.07" y2="359.74" stroke="#7FA39A" stroke-width="1.38" stroke-opacity="0.197" stroke-linecap="round" /><line x1="464.56" y1="336.16" x2="496.13" y2="391.50" stroke="#8D6B5A" stroke-width="1.38" stroke-opacity="0.197" stroke-linecap="round" /><line x1="417.07" y1="359.74" x2="394.82" y2="384.62" stroke="#7FA39A" stroke-width="1.38" stroke-opacity="0.197" stroke-linecap="round" /><line x1="417.07" y1="359.74" x2="464.56" y2="336.16" stroke="#5E7D74" stroke-width="1.38" stroke-opacity="0.197" stroke-linecap="round" /><line x1="496.13" y1="391.50" x2="492.38" y2="358.83" stroke="#6B8F86" stroke-width="1.38" stroke-opacity="0.197" stroke-linecap="round" /><line x1="496.13" y1="391.50" x2="464.56" y2="336.16" stroke="#7FA39A" stroke-width="1.38" stroke-opacity="0.197" stroke-linecap="round" /><line x1="104.27" y1="98.53" x2="115.25" y2="90.53" stroke="#6B8F86" stroke-width="1.08" stroke-opacity="0.070" stroke-linecap="round" /><line x1="104.27" y1="98.53" x2="166.17" y2="145.78" stroke="#CF9F6E" stroke-width="1.38" stroke-opacity="0.197" stroke-linecap="round" /><line x1="104.27" y1="98.53" x2="178.47" y2="169.00" stroke="#5E7D74" stroke-width="1.38" stroke-opacity="0.197" stroke-linecap="round" /><line x1="166.17" y1="145.78" x2="178.47" y2="169.00" stroke="#7FA39A" stroke-width="1.38" stroke-opacity="0.197" stroke-linecap="round" /><line x1="166.17" y1="145.78" x2="130.32" y2="79.56" stroke="#7FA39A" stroke-width="1.38" stroke-opacity="0.197" stroke-linecap="round" /><line x1="166.17" y1="145.78" x2="104.27" y2="98.53" stroke="#7FA39A" stroke-width="1.38" stroke-opacity="0.197" stroke-linecap="round" /><line x1="178.47" y1="169.00" x2="130.32" y2="79.56" stroke="#5E7D74" stroke-width="1.38" stroke-opacity="0.197" stroke-linecap="round" /><line x1="178.47" y1="169.00" x2="104.27" y2="98.53" stroke="#5E7D74" stroke-width="1.38" stroke-opacity="0.197" stroke-linecap="round" /><line x1="130.32" y1="79.56" x2="104.27" y2="98.53" stroke="#8D6B5A" stroke-width="1.38" stroke-opacity="0.197" stroke-linecap="round" /><line x1="452.62" y1="264.70" x2="472.97" y2="261.39" stroke="#5E7D74" stroke-width="1.38" stroke-opacity="0.197" stroke-linecap="round" /><line x1="409.98" y1="316.24" x2="424.33" y2="300.30" stroke="#CF9F6E" stroke-width="1.08" stroke-opacity="0.070" stroke-linecap="round" /><line x1="472.97" y1="261.39" x2="452.62" y2="264.70" stroke="#6B8F86" stroke-width="1.38" stroke-opacity="0.197" stroke-linecap="round" /><line x1="464.32" y1="115.63" x2="411.35" y2="92.41" stroke="#6B8F86" stroke-width="1.38" stroke-opacity="0.197" stroke-linecap="round" /><line x1="464.32" y1="115.63" x2="380.68" y2="67.46" stroke="#7FA39A" stroke-width="1.38" stroke-opacity="0.197" stroke-linecap="round" /><line x1="378.64" y1="110.45" x2="411.35" y2="92.41" stroke="#5E7D74" stroke-width="1.38" stroke-opacity="0.197" stroke-linecap="round" /><line x1="378.64" y1="110.45" x2="380.68" y2="67.46" stroke="#7FA39A" stroke-width="1.38" stroke-opacity="0.197" stroke-linecap="round" /><line x1="411.35" y1="92.41" x2="378.64" y2="110.45" stroke="#CF9F6E" stroke-width="1.38" stroke-opacity="0.197" stroke-linecap="round" /><line x1="411.35" y1="92.41" x2="380.68" y2="67.46" stroke="#CF9F6E" stroke-width="1.38" stroke-opacity="0.197" stroke-linecap="round" /><line x1="411.35" y1="92.41" x2="445.04" y2="60.95" stroke="#8D6B5A" stroke-width="1.38" stroke-opacity="0.197" stroke-linecap="round" /><line x1="445.04" y1="60.95" x2="411.35" y2="92.41" stroke="#6B8F86" stroke-width="1.38" stroke-opacity="0.197" stroke-linecap="round" /><line x1="380.68" y1="67.46" x2="411.35" y2="92.41" stroke="#CF9F6E" stroke-width="1.38" stroke-opacity="0.197" stroke-linecap="round" /><line x1="380.68" y1="67.46" x2="378.64" y2="110.45" stroke="#8D6B5A" stroke-width="1.38" stroke-opacity="0.197" stroke-linecap="round" /><line x1="380.68" y1="67.46" x2="445.04" y2="60.95" stroke="#8D6B5A" stroke-width="1.38" stroke-opacity="0.197" stroke-linecap="round" /><line x1="472.97" y1="261.39" x2="469.57" y2="204.05" stroke="#5E7D74" stroke-width="1.00" stroke-opacity="0.092" stroke-linecap="round" /><line x1="464.32" y1="115.63" x2="467.72" y2="172.97" stroke="#5E7D74" stroke-width="1.00" stroke-opacity="0.081" stroke-linecap="round" /><path d="M 445.40 383.55 L 395.38 410.98 L 344.24 385.70 L 394.26 358.27 Z" fill="#6B8F86" fill-opacity="0.081" stroke="#5E7D74" stroke-width="1.60" stroke-opacity="0.383" stroke-linejoin="round" /><path d="M 522.99 376.48 A 35.34 35.34 0 0 1 486.68 393.71" fill="none" stroke="#7FA39A" stroke-width="1.30" stroke-opacity="0.130" stroke-linecap="round" /><line x1="492.71" y1="362.26" x2="495.46" y2="406.35" stroke="#7FA39A" stroke-width="0.80" stroke-opacity="0.058" stroke-linecap="round" /><circle cx="492.38" cy="358.83" r="11.46" fill="#CF9F6E" fill-opacity="0.081" stroke="#7FA39A" stroke-width="1.10" stroke-opacity="0.290" /><path d="M 530.36 354.43 A 21.48 21.48 0 0 1 553.23 375.39" fill="none" stroke="#8D6B5A" stroke-width="0.84" stroke-opacity="0.070" stroke-linecap="round" /><circle cx="531.76" cy="375.86" r="10.00" fill="none" stroke="#5E7D74" stroke-width="1.10" stroke-opacity="0.290" /><circle cx="464.56" cy="336.16" r="35.04" fill="#8D6B5A" fill-opacity="0.081" stroke="#6B8F86" stroke-width="1.10" stroke-opacity="0.290" /><line x1="415.77" y1="348.10" x2="397.71" y2="210.99" stroke="#7FA39A" stroke-width="0.80" stroke-opacity="0.058" stroke-linecap="round" /><circle cx="438.81" cy="366.77" r="34.02" fill="none" stroke="#7FA39A" stroke-width="0.90" stroke-opacity="0.093" /><circle cx="417.07" cy="359.74" r="39.03" fill="#6B8F86" fill-opacity="0.081" stroke="#6B8F86" stroke-width="1.10" stroke-opacity="0.290" /><circle cx="479.15" cy="441.37" r="7.55" fill="none" stroke="#8D6B5A" stroke-width="0.90" stroke-opacity="0.093" /><path d="M 477.63 395.45 L 494.11 382.07 L 514.63 387.55 L 498.14 400.94 Z" fill="none" stroke="#7FA39A" stroke-width="1.10" stroke-opacity="0.290" stroke-linejoin="round" /><circle cx="104.27" cy="98.53" r="31.40" fill="#5E7D74" fill-opacity="0.081" stroke="#5E7D74" stroke-width="1.10" stroke-opacity="0.290" /><circle cx="166.17" cy="145.78" r="16.60" fill="none" stroke="#CF9F6E" stroke-width="1.10" stroke-opacity="0.290" /><path d="M 211.31 143.15 L 187.77 180.81 L 145.62 194.84 L 169.17 157.18 Z" fill="none" stroke="#5E7D74" stroke-width="1.10" stroke-opacity="0.290" stroke-linejoin="round" /><path d="M 115.37 74.51 L 132.51 73.08 L 145.27 84.61 L 128.13 86.04 Z" fill="none" stroke="#6B8F86" stroke-width="1.10" stroke-opacity="0.290" stroke-linejoin="round" /><path d="M 500.42 316.68 A 70.62 70.62 0 0 1 440.07 334.19" fill="none" stroke="#CF9F6E" stroke-width="1.27" stroke-opacity="0.125" stroke-linecap="round" /><circle cx="452.62" cy="264.70" r="26.08" fill="none" stroke="#6B8F86" stroke-width="1.10" stroke-opacity="0.290" /><path d="M 376.59 291.06 L 422.35 299.83 L 443.38 341.41 L 397.62 332.64 Z" fill="none" stroke="#7FA39A" stroke-width="1.10" stroke-opacity="0.290" stroke-linejoin="round" /><path d="M 412.26 260.88 A 37.08 37.08 0 0 1 466.84 283.23" fill="none" stroke="#8D6B5A" stroke-width="1.02" stroke-opacity="0.101" stroke-linecap="round" /><path d="M 417.21 300.34 L 428.00 287.26 L 444.86 285.37 L 434.06 298.46 Z" fill="none" stroke="#5E7D74" stroke-width="1.60" stroke-opacity="0.383" stroke-linejoin="round" /><path d="M 437.63 263.72 A 35.42 35.42 0 0 1 449.35 235.00" fill="none" stroke="#7FA39A" stroke-width="1.07" stroke-opacity="0.118" stroke-linecap="round" /><circle cx="472.97" cy="261.39" r="14.63" fill="#CF9F6E" fill-opacity="0.081" stroke="#5E7D74" stroke-width="1.10" stroke-opacity="0.290" /><path d="M 492.60 230.31 A 118.11 118.11 0 0 1 351.92 151.91" fill="none" stroke="#8D6B5A" stroke-width="1.21" stroke-opacity="0.075" stroke-linecap="round" /><circle cx="464.32" cy="115.63" r="33.49" fill="none" stroke="#CF9F6E" stroke-width="1.10" stroke-opacity="0.290" /><path d="M 361.79 233.68 A 124.38 124.38 0 0 1 258.61 143.06" fill="none" stroke="#CF9F6E" stroke-width="1.09" stroke-opacity="0.075" stroke-linecap="round" /><line x1="388.21" y1="105.90" x2="481.67" y2="73.76" stroke="#5E7D74" stroke-width="0.80" stroke-opacity="0.058" stroke-linecap="round" /><circle cx="411.36" cy="99.15" r="24.07" fill="none" stroke="#CF9F6E" stroke-width="0.90" stroke-opacity="0.093" /><circle cx="378.64" cy="110.45" r="35.30" fill="none" stroke="#CF9F6E" stroke-width="1.10" stroke-opacity="0.290" /><line x1="410.05" y1="88.78" x2="402.54" y2="41.61" stroke="#CF9F6E" stroke-width="0.80" stroke-opacity="0.058" stroke-linecap="round" /><circle cx="411.35" cy="92.41" r="12.85" fill="none" stroke="#6B8F86" stroke-width="1.10" stroke-opacity="0.290" /><line x1="446.65" y1="57.93" x2="456.77" y2="19.76" stroke="#8D6B5A" stroke-width="0.80" stroke-opacity="0.058" stroke-linecap="round" /><circle cx="445.04" cy="60.95" r="11.41" fill="none" stroke="#8D6B5A" stroke-width="1.10" stroke-opacity="0.290" /><path d="M 418.93 15.11 A 64.84 64.84 0 0 1 444.80 77.14" fill="none" stroke="#7FA39A" stroke-width="1.34" stroke-opacity="0.115" stroke-linecap="round" /><circle cx="380.68" cy="67.46" r="27.54" fill="#6B8F86" fill-opacity="0.081" stroke="#CF9F6E" stroke-width="1.10" stroke-opacity="0.290" /></svg>