<svg xmlns="http://www.w3.org/2000/svg" width="800" height="100" viewBox="0 0 800 100"><circle cx="623.81" cy="68.60" r="6.78" fill="#E7CEC4" fill-opacity="0.062" /><circle cx="523.47" cy="91.91" r="18.13" fill="#EBE0CB" fill-opacity="0.079" /><line x1="548.40" y1="58.56" x2="474.14" y2="74.87" stroke="#A67663" stroke-width="1.22" stroke-opacity="0.218" stroke-linecap="round" /><line x1="548.40" y1="58.56" x2="623.81" y2="68.60" stroke="#D8A796" stroke-width="1.22" stroke-opacity="0.218" stroke-linecap="round" /><line x1="541.81" y1="61.33" x2="548.40" y2="58.56" stroke="#D8A796" stroke-width="1.22" stroke-opacity="0.218" stroke-linecap="round" /><line x1="541.81" y1="61.33" x2="623.81" y2="68.60" stroke="#A4866D" stroke-width="1.22" stroke-opacity="0.218" stroke-linecap="round" /><line x1="474.14" y1="74.87" x2="541.81" y2="61.33" stroke="#D8A796" stroke-width="1.22" stroke-opacity="0.218" stroke-linecap="round" /><line x1="474.14" y1="74.87" x2="548.40" y2="58.56" stroke="#A67663" stroke-width="1.22" stroke-opacity="0.218" stroke-linecap="round" /><line x1="623.81" y1="68.60" x2="548.40" y2="58.56" stroke="#CFB482" stroke-width="1.22" stroke-opacity="0.218" stroke-linecap="round" /><line x1="537.69" y1="76.84" x2="526.85" y2="88.33" stroke="#A4866D" stroke-width="0.99" stroke-opacity="0.077" stroke-linecap="round" /><line x1="523.47" y1="91.91" x2="537.69" y2="76.84" stroke="#8F6658" stroke-width="1.22" stroke-opacity="0.218" stroke-linecap="round" /><path d="M 554.71 63.40 A 7.96 7.96 0 0 1 541.74 62.91" fill="none" stroke="#A67663" stroke-width="1.48" stroke-opacity="0.150" stroke-linecap="round" /><path d="M 555.82 51.11 L 549.59 49.68 L 546.78 43.93 L 553.01 45.36 Z" fill="none" stroke="#CFB482" stroke-width="0.90" stroke-opacity="0.102" stroke-linejoin="round" /><path d="M 553.49 52.52 L 551.18 60.90 L 543.31 64.59 L 545.62 56.21 Z" fill="#8F6658" fill-opacity="0.090" stroke="#D8A796" stroke-width="1.60" stroke-opacity="0.422" stroke-linejoin="round" /><circle cx="541.81" cy="61.33" r="5.53" fill="none" stroke="#C68B72" stroke-width="1.60" stroke-opacity="0.422" /><path d="M 450.01 61.55 A 27.57 27.57 0 0 1 496.05 58.15" fill="none" stroke="#C68B72" stroke-width="1.10" stroke-opacity="0.107" stroke-linecap="round" /><circle cx="476.80" cy="81.83" r="3.56" fill="none" stroke="#8F6658" stroke-width="0.90" stroke-opacity="0.102" /><path d="M 482.01 71.84 L 475.49 78.38 L 466.26 77.91 L 472.79 71.37 Z" fill="none" stroke="#8F6658" stroke-width="1.60" stroke-opacity="0.422" stroke-linejoin="round" /><path d="M 626.62 69.82 L 623.26 69.87 L 621.01 67.39 L 624.36 67.34 Z" fill="#C68B72" fill-opacity="0.090" stroke="#C68B72" stroke-width="1.10" stroke-opacity="0.320" stroke-linejoin="round" /><path d="M 525.59 62.70 A 18.61 18.61 0 0 1 556.29 76.54" fill="none" stroke="#D8A796" stroke-width="1.15" stroke-opacity="0.073" stroke-linecap="round" /><circle cx="537.69" cy="76.84" r="5.45" fill="#D8A796" fill-opacity="0.090" stroke="#C68B72" stroke-width="1.10" stroke-opacity="0.320" /><path d="M 516.23 77.09 A 16.50 16.50 0 0 1 538.11 84.31" fill="none" stroke="#8F6658" stroke-width="1.37" stroke-opacity="0.089" stroke-linecap="round" /><circle cx="523.47" cy="91.91" r="4.64" fill="none" stroke="#C68B72" stroke-width="1.10" stroke-opacity="0.320" /></svg>