<svg xmlns="http://www.w3.org/2000/svg" width="1200" height="180" viewBox="0 0 1200 180"><rect width="100%" height="100%" fill="#D7E1EA" /><path d="M 837.27 135.85 A 34.92 34.92 0 0 1 817.39 155.01" fill="none" stroke="#547597" stroke-width="1.45" stroke-opacity="0.043" stroke-linecap="round" /><path d="M 800.63 156.97 A 34.92 34.92 0 0 1 770.92 129.55" fill="none" stroke="#547597" stroke-width="1.75" stroke-opacity="0.050" stroke-linecap="round" /><path d="M 861.62 131.94 A 57.35 57.35 0 0 1 856.69 147.33" fill="none" stroke="#547597" stroke-width="1.44" stroke-opacity="0.061" stroke-linecap="round" /><path d="M 837.04 169.95 A 57.35 57.35 0 0 1 773.52 170.22" fill="none" stroke="#547597" stroke-width="1.28" stroke-opacity="0.059" stroke-linecap="round" /><path d="M 758.28 155.49 A 57.35 57.35 0 0 1 761.21 85.40" fill="none" stroke="#547597" stroke-width="1.23" stroke-opacity="0.048" stroke-linecap="round" /><path d="M 779.18 71.17 A 57.35 57.35 0 0 1 820.12 66.99" fill="none" stroke="#547597" stroke-width="1.34" stroke-opacity="0.066" stroke-linecap="round" /><path d="M 884.10 170.06 A 34.23 34.23 0 0 1 848.05 148.18" fill="none" stroke="#547597" stroke-width="0.96" stroke-opacity="0.089" stroke-linecap="round" /><path d="M 846.60 128.90 A 34.23 34.23 0 0 1 853.77 114.16" fill="none" stroke="#547597" stroke-width="1.46" stroke-opacity="0.064" stroke-linecap="round" /><path d="M 828.94 125.01 A 52.31 52.31 0 0 1 871.96 84.39" fill="none" stroke="#547597" stroke-width="0.98" stroke-opacity="0.090" stroke-linecap="round" /><path d="M 898.04 86.94 A 52.31 52.31 0 0 1 926.40 111.78" fill="none" stroke="#547597" stroke-width="0.90" stroke-opacity="0.068" stroke-linecap="round" /><path d="M 932.18 131.50 A 52.31 52.31 0 0 1 929.02 154.51" fill="none" stroke="#547597" stroke-width="1.75" stroke-opacity="0.084" stroke-linecap="round" /><circle cx="880.07" cy="136.07" r="62.82" fill="#EEE5D2" fill-opacity="0.038" /><circle cx="773.64" cy="137.53" r="4.26" fill="none" stroke="#395068" stroke-width="1.60" stroke-opacity="0.277" /><circle cx="747.95" cy="127.38" r="4.45" fill="none" stroke="#C7A86A" stroke-width="1.10" stroke-opacity="0.210" /><path d="M 854.71 123.45 L 845.03 119.24 L 849.25 109.56 L 858.92 113.78 Z" fill="none" stroke="#C7A86A" stroke-width="1.10" stroke-opacity="0.210" stroke-linejoin="round" /><circle cx="906.10" cy="90.70" r="8.83" fill="none" stroke="#6E8FB0" stroke-width="1.60" stroke-opacity="0.277" /></svg>