<svg xmlns="http://www.w3.org/2000/svg" width="50" height="74" viewBox="0 394 50 74"><path d="M 42.49 411.54 A 9.70 9.70 0 0 1 36.55 417.01" fill="none" stroke="#C68B72" stroke-width="1.45" stroke-opacity="0.055" stroke-linecap="round" /><path d="M 31.62 417.29 A 9.70 9.70 0 0 1 23.86 408.33" fill="none" stroke="#C68B72" stroke-width="1.75" stroke-opacity="0.064" stroke-linecap="round" /><path d="M 48.59 410.34 A 15.26 15.26 0 0 1 47.27 414.46" fill="none" stroke="#C68B72" stroke-width="1.44" stroke-opacity="0.078" stroke-linecap="round" /><path d="M 41.69 420.69 A 15.26 15.26 0 0 1 23.87 419.59" fill="none" stroke="#C68B72" stroke-width="1.28" stroke-opacity="0.076" stroke-linecap="round" /><path d="M 20.05 414.92 A 15.26 15.26 0 0 1 24.26 395.67" fill="none" stroke="#C68B72" stroke-width="1.23" stroke-opacity="0.062" stroke-linecap="round" /><path d="M 30.14 392.91 A 15.26 15.26 0 0 1 41.50 394.76" fill="none" stroke="#C68B72" stroke-width="1.34" stroke-opacity="0.085" stroke-linecap="round" /><path d="M 37.79 463.01 A 9.51 9.51 0 0 1 27.52 456.14" fill="none" stroke="#C68B72" stroke-width="0.96" stroke-opacity="0.114" stroke-linecap="round" /><path d="M 27.66 450.53 A 9.51 9.51 0 0 1 30.23 446.57" fill="none" stroke="#C68B72" stroke-width="1.46" stroke-opacity="0.082" stroke-linecap="round" /><path d="M 23.15 450.64 A 13.83 13.83 0 0 1 35.59 439.78" fill="none" stroke="#C68B72" stroke-width="0.98" stroke-opacity="0.116" stroke-linecap="round" /><path d="M 42.75 441.14 A 13.83 13.83 0 0 1 49.71 448.96" fill="none" stroke="#C68B72" stroke-width="0.90" stroke-opacity="0.088" stroke-linecap="round" /><path d="M 50.45 454.71 A 13.83 13.83 0 0 1 48.49 460.74" fill="none" stroke="#C68B72" stroke-width="1.75" stroke-opacity="0.109" stroke-linecap="round" /><circle cx="36.67" cy="453.57" r="17.45" fill="#F1E9DA" fill-opacity="0.048" /><circle cx="24.32" cy="410.78" r="1.27" fill="none" stroke="#8F6658" stroke-width="1.60" stroke-opacity="0.356" /><line x1="18.33" y1="406.61" x2="24.09" y2="427.28" stroke="#C68B72" stroke-width="0.85" stroke-opacity="0.049" stroke-linecap="round" /><path d="M 19.64 406.65 A 1.31 1.31 0 0 0 18.87 405.42 A 0.78 0.78 0 0 1 19.64 406.65 Z" fill="none" stroke="#A4866D" stroke-width="1.10" stroke-opacity="0.270" stroke-linejoin="round" /><path d="M 31.12 445.67 A 2.11 2.11 0 0 0 27.99 445.84 A 1.58 1.58 0 0 1 31.12 445.67 Z" fill="none" stroke="#A67663" stroke-width="1.10" stroke-opacity="0.270" stroke-linejoin="round" /><circle cx="44.86" cy="442.42" r="2.47" fill="none" stroke="#A67663" stroke-width="1.60" stroke-opacity="0.356" /></svg>