<svg xmlns="http://www.w3.org/2000/svg" width="200" height="200" viewBox="0 0 200 200"><path d="M 169.95 150.95 A 38.80 38.80 0 0 1 146.19 172.82" fill="none" stroke="#C68B72" stroke-width="1.45" stroke-opacity="0.055" stroke-linecap="round" /><path d="M 126.48 173.95 A 38.80 38.80 0 0 1 95.44 138.09" fill="none" stroke="#C68B72" stroke-width="1.75" stroke-opacity="0.064" stroke-linecap="round" /><path d="M 193.46 146.00 A 60.13 60.13 0 0 1 188.25 162.24" fill="none" stroke="#C68B72" stroke-width="1.44" stroke-opacity="0.078" stroke-linecap="round" /><path d="M 166.27 186.78 A 60.13 60.13 0 0 1 96.07 182.44" fill="none" stroke="#C68B72" stroke-width="1.28" stroke-opacity="0.076" stroke-linecap="round" /><path d="M 81.02 164.03 A 60.13 60.13 0 0 1 97.61 88.20" fill="none" stroke="#C68B72" stroke-width="1.23" stroke-opacity="0.062" stroke-linecap="round" /><path d="M 120.77 77.31 A 60.13 60.13 0 0 1 165.51 84.61" fill="none" stroke="#C68B72" stroke-width="1.34" stroke-opacity="0.085" stroke-linecap="round" /><path d="M 168.46 244.60 A 113.95 113.95 0 0 1 107.82 246.78" fill="none" stroke="#C68B72" stroke-width="1.78" stroke-opacity="0.116" stroke-linecap="round" /><path d="M 65.99 227.22 A 113.95 113.95 0 0 1 21.42 119.55" fill="none" stroke="#C68B72" stroke-width="1.21" stroke-opacity="0.061" stroke-linecap="round" /><path d="M 35.61 78.76 A 113.95 113.95 0 0 1 89.06 31.30" fill="none" stroke="#C68B72" stroke-width="0.77" stroke-opacity="0.089" stroke-linecap="round" /><path d="M 164.92 117.82 A 38.03 38.03 0 0 1 183.08 140.17" fill="none" stroke="#C68B72" stroke-width="0.90" stroke-opacity="0.088" stroke-linecap="round" /><path d="M 184.40 156.04 A 38.03 38.03 0 0 1 178.26 172.38" fill="none" stroke="#C68B72" stroke-width="1.75" stroke-opacity="0.109" stroke-linecap="round" /><path d="M 160.79 186.51 A 38.03 38.03 0 0 1 114.90 172.08" fill="none" stroke="#C68B72" stroke-width="1.56" stroke-opacity="0.091" stroke-linecap="round" /><path d="M 109.78 160.42 A 38.03 38.03 0 0 1 109.01 145.93" fill="none" stroke="#C68B72" stroke-width="1.71" stroke-opacity="0.059" stroke-linecap="round" /><path d="M 74.06 164.55 A 73.84 73.84 0 0 1 102.57 91.97" fill="none" stroke="#C68B72" stroke-width="1.11" stroke-opacity="0.092" stroke-linecap="round" /><path d="M 132.59 78.71 A 73.84 73.84 0 0 1 192.36 93.18" fill="none" stroke="#C68B72" stroke-width="1.16" stroke-opacity="0.082" stroke-linecap="round" /><path d="M 199.72 209.44 A 78.78 78.78 0 0 1 169.14 226.70" fill="none" stroke="#C68B72" stroke-width="1.75" stroke-opacity="0.066" stroke-linecap="round" /><path d="M 131.97 228.59 A 78.78 78.78 0 0 1 87.30 202.97" fill="none" stroke="#C68B72" stroke-width="1.01" stroke-opacity="0.061" stroke-linecap="round" /><circle cx="146.68" cy="151.19" r="68.79" fill="#F1E9DA" fill-opacity="0.048" /><circle cx="140.43" cy="143.56" r="81.03" fill="#D4C5C0" fill-opacity="0.049" /><circle cx="97.28" cy="147.90" r="4.61" fill="none" stroke="#A67663" stroke-width="1.60" stroke-opacity="0.356" /><circle cx="74.23" cy="131.30" r="4.80" fill="none" stroke="#CFB482" stroke-width="1.10" stroke-opacity="0.270" /><circle cx="120.59" cy="249.06" r="8.78" fill="none" stroke="#A67663" stroke-width="1.10" stroke-opacity="0.270" /><circle cx="170.58" cy="121.61" r="9.25" fill="none" stroke="#A4866D" stroke-width="1.60" stroke-opacity="0.356" /><circle cx="139.04" cy="188.45" r="3.70" fill="none" stroke="#8F6658" stroke-width="1.10" stroke-opacity="0.270" /><circle cx="108.67" cy="149.92" r="11.50" fill="none" stroke="#A67663" stroke-width="1.10" stroke-opacity="0.270" /><circle cx="168.66" cy="80.70" r="10.02" fill="none" stroke="#A4866D" stroke-width="1.60" stroke-opacity="0.356" /><circle cx="195.13" cy="213.31" r="9.85" fill="none" stroke="#8F6658" stroke-width="1.10" stroke-opacity="0.270" /><circle cx="99.97" cy="214.64" r="11.33" fill="none" stroke="#8F6658" stroke-width="1.10" stroke-opacity="0.270" /></svg>